<mxfile host="app.diagrams.net" agent="Mozilla/5.0 (Windows NT 10.0; Win64; x64; rv:135.0) Gecko/20100101 Firefox/135.0" version="26.0.16">
  <diagram name="Страница — 1" id="eEI_QiXptIv1MV_Fa20T">
    <mxGraphModel dx="1434" dy="774" grid="1" gridSize="10" guides="1" tooltips="1" connect="1" arrows="1" fold="1" page="1" pageScale="1" pageWidth="827" pageHeight="1169" math="0" shadow="0">
      <root>
        <mxCell id="0" />
        <mxCell id="1" parent="0" />
        <mxCell id="RCSx3XRYE1pU8IpBLMNo-5" style="edgeStyle=orthogonalEdgeStyle;rounded=0;orthogonalLoop=1;jettySize=auto;html=1;exitX=1;exitY=0.5;exitDx=0;exitDy=0;" edge="1" parent="1" source="RCSx3XRYE1pU8IpBLMNo-1" target="RCSx3XRYE1pU8IpBLMNo-2">
          <mxGeometry relative="1" as="geometry" />
        </mxCell>
        <mxCell id="RCSx3XRYE1pU8IpBLMNo-1" value="Start" style="ellipse;whiteSpace=wrap;html=1;" vertex="1" parent="1">
          <mxGeometry x="30" y="80" width="120" height="80" as="geometry" />
        </mxCell>
        <mxCell id="RCSx3XRYE1pU8IpBLMNo-7" style="edgeStyle=orthogonalEdgeStyle;rounded=0;orthogonalLoop=1;jettySize=auto;html=1;exitX=1;exitY=0.5;exitDx=0;exitDy=0;entryX=0;entryY=0.5;entryDx=0;entryDy=0;" edge="1" parent="1" source="RCSx3XRYE1pU8IpBLMNo-2" target="RCSx3XRYE1pU8IpBLMNo-6">
          <mxGeometry relative="1" as="geometry" />
        </mxCell>
        <mxCell id="RCSx3XRYE1pU8IpBLMNo-2" value="input_string = input()" style="shape=parallelogram;perimeter=parallelogramPerimeter;whiteSpace=wrap;html=1;fixedSize=1;" vertex="1" parent="1">
          <mxGeometry x="240" y="90" width="250" height="60" as="geometry" />
        </mxCell>
        <mxCell id="RCSx3XRYE1pU8IpBLMNo-9" value="" style="edgeStyle=orthogonalEdgeStyle;rounded=0;orthogonalLoop=1;jettySize=auto;html=1;" edge="1" parent="1" source="RCSx3XRYE1pU8IpBLMNo-6" target="RCSx3XRYE1pU8IpBLMNo-8">
          <mxGeometry relative="1" as="geometry" />
        </mxCell>
        <mxCell id="RCSx3XRYE1pU8IpBLMNo-6" value="words = input_string.split()" style="rounded=0;whiteSpace=wrap;html=1;" vertex="1" parent="1">
          <mxGeometry x="550" y="90" width="160" height="60" as="geometry" />
        </mxCell>
        <mxCell id="RCSx3XRYE1pU8IpBLMNo-11" style="edgeStyle=orthogonalEdgeStyle;rounded=0;orthogonalLoop=1;jettySize=auto;html=1;exitX=0.5;exitY=1;exitDx=0;exitDy=0;entryX=0.5;entryY=0;entryDx=0;entryDy=0;" edge="1" parent="1" source="RCSx3XRYE1pU8IpBLMNo-8">
          <mxGeometry relative="1" as="geometry">
            <mxPoint x="630" y="340" as="targetPoint" />
          </mxGeometry>
        </mxCell>
        <mxCell id="RCSx3XRYE1pU8IpBLMNo-8" value="new_arr = []" style="whiteSpace=wrap;html=1;rounded=0;" vertex="1" parent="1">
          <mxGeometry x="570" y="230" width="120" height="60" as="geometry" />
        </mxCell>
        <mxCell id="RCSx3XRYE1pU8IpBLMNo-14" style="edgeStyle=orthogonalEdgeStyle;rounded=0;orthogonalLoop=1;jettySize=auto;html=1;entryX=1;entryY=0.5;entryDx=0;entryDy=0;" edge="1" parent="1" source="RCSx3XRYE1pU8IpBLMNo-12" target="RCSx3XRYE1pU8IpBLMNo-13">
          <mxGeometry relative="1" as="geometry" />
        </mxCell>
        <mxCell id="RCSx3XRYE1pU8IpBLMNo-12" value="for word in words" style="rounded=0;whiteSpace=wrap;html=1;" vertex="1" parent="1">
          <mxGeometry x="570" y="340" width="120" height="60" as="geometry" />
        </mxCell>
        <mxCell id="RCSx3XRYE1pU8IpBLMNo-16" style="edgeStyle=orthogonalEdgeStyle;rounded=0;orthogonalLoop=1;jettySize=auto;html=1;exitX=0;exitY=0.5;exitDx=0;exitDy=0;entryX=1;entryY=0.5;entryDx=0;entryDy=0;" edge="1" parent="1" source="RCSx3XRYE1pU8IpBLMNo-13" target="RCSx3XRYE1pU8IpBLMNo-15">
          <mxGeometry relative="1" as="geometry" />
        </mxCell>
        <mxCell id="RCSx3XRYE1pU8IpBLMNo-26" style="edgeStyle=orthogonalEdgeStyle;rounded=0;orthogonalLoop=1;jettySize=auto;html=1;exitX=0.5;exitY=1;exitDx=0;exitDy=0;" edge="1" parent="1" source="RCSx3XRYE1pU8IpBLMNo-13">
          <mxGeometry relative="1" as="geometry">
            <mxPoint x="300" y="470" as="targetPoint" />
            <Array as="points">
              <mxPoint x="415" y="430" />
              <mxPoint x="301" y="430" />
            </Array>
          </mxGeometry>
        </mxCell>
        <mxCell id="RCSx3XRYE1pU8IpBLMNo-13" value="if len(word) &amp;lt;= 3" style="rhombus;whiteSpace=wrap;html=1;" vertex="1" parent="1">
          <mxGeometry x="340" y="330" width="150" height="80" as="geometry" />
        </mxCell>
        <mxCell id="RCSx3XRYE1pU8IpBLMNo-21" style="edgeStyle=orthogonalEdgeStyle;rounded=0;orthogonalLoop=1;jettySize=auto;html=1;entryX=0.5;entryY=0;entryDx=0;entryDy=0;" edge="1" parent="1" source="RCSx3XRYE1pU8IpBLMNo-15" target="RCSx3XRYE1pU8IpBLMNo-20">
          <mxGeometry relative="1" as="geometry">
            <Array as="points">
              <mxPoint x="190" y="430" />
              <mxPoint x="300" y="430" />
            </Array>
          </mxGeometry>
        </mxCell>
        <mxCell id="RCSx3XRYE1pU8IpBLMNo-15" value="new_arr.append(word)" style="rounded=0;whiteSpace=wrap;html=1;" vertex="1" parent="1">
          <mxGeometry x="120" y="340" width="140" height="60" as="geometry" />
        </mxCell>
        <mxCell id="RCSx3XRYE1pU8IpBLMNo-17" value="True" style="text;html=1;align=center;verticalAlign=middle;whiteSpace=wrap;rounded=0;" vertex="1" parent="1">
          <mxGeometry x="280" y="340" width="60" height="30" as="geometry" />
        </mxCell>
        <mxCell id="RCSx3XRYE1pU8IpBLMNo-20" value="print(&quot; &quot;.join(new_arr))" style="shape=parallelogram;perimeter=parallelogramPerimeter;whiteSpace=wrap;html=1;fixedSize=1;" vertex="1" parent="1">
          <mxGeometry x="160" y="470" width="290" height="60" as="geometry" />
        </mxCell>
        <mxCell id="RCSx3XRYE1pU8IpBLMNo-31" value="False" style="text;html=1;align=center;verticalAlign=middle;whiteSpace=wrap;rounded=0;" vertex="1" parent="1">
          <mxGeometry x="330" y="400" width="60" height="30" as="geometry" />
        </mxCell>
      </root>
    </mxGraphModel>
  </diagram>
</mxfile>
